<svg xmlns="http://www.w3.org/2000/svg" viewBox="0 0 1600 900" role="img" aria-labelledby="title desc">
<title id="title">Organized business growth lanes</title><desc id="desc">An editorial illustration of coordinated teams moving through clear business lanes toward growth.</desc>
<defs><linearGradient id="bg" x2="1" y2="1"><stop stop-color="#07110e"/><stop offset=".58" stop-color="#0a513f"/><stop offset="1" stop-color="#151a17"/></linearGradient><linearGradient id="gold" x2="1"><stop stop-color="#f2d98c"/><stop offset="1" stop-color="#9b7327"/></linearGradient><filter id="glow"><feGaussianBlur stdDeviation="18"/></filter><pattern id="grid" width="64" height="64" patternUnits="userSpaceOnUse"><path d="M64 0H0V64" fill="none" stroke="#f2d98c" stroke-opacity=".08"/></pattern></defs>
<rect width="1600" height="900" fill="url(#bg)"/><rect width="1600" height="900" fill="url(#grid)"/><circle cx="1270" cy="160" r="180" fill="#d8b45a" opacity=".12" filter="url(#glow)"/>
<path d="M170 670C390 670 430 580 610 580S850 470 1020 470s235-120 405-120" fill="none" stroke="#f2d98c" stroke-opacity=".16" stroke-width="100" stroke-linecap="round"/>
<path d="M170 670C390 670 430 580 610 580S850 470 1020 470s235-120 405-120" fill="none" stroke="url(#gold)" stroke-width="7" stroke-linecap="round"/>
<g fill="#0d211b" stroke="#f2d98c" stroke-width="4"><rect x="140" y="540" width="250" height="190" rx="30"/><rect x="485" y="450" width="250" height="190" rx="30"/><rect x="830" y="340" width="250" height="190" rx="30"/><rect x="1175" y="215" width="250" height="190" rx="30"/></g>
<g fill="#0a8d69"><circle cx="210" cy="610" r="28"/><circle cx="555" cy="520" r="28"/><circle cx="900" cy="410" r="28"/><circle cx="1245" cy="285" r="28"/></g>
<g fill="#f2d98c" opacity=".9"><rect x="260" y="588" width="88" height="12" rx="6"/><rect x="260" y="618" width="68" height="10" rx="5"/><rect x="605" y="498" width="88" height="12" rx="6"/><rect x="605" y="528" width="68" height="10" rx="5"/><rect x="950" y="388" width="88" height="12" rx="6"/><rect x="950" y="418" width="68" height="10" rx="5"/><rect x="1295" y="263" width="88" height="12" rx="6"/><rect x="1295" y="293" width="68" height="10" rx="5"/></g>
<path d="M1322 180l75-50 48 73" fill="none" stroke="#f2d98c" stroke-width="13" stroke-linecap="round" stroke-linejoin="round"/><circle cx="180" cy="190" r="54" fill="none" stroke="#0a8d69" stroke-width="7"/><circle cx="180" cy="190" r="14" fill="#f2d98c"/>
</svg>
