<svg xmlns="http://www.w3.org/2000/svg" viewBox="0 0 1600 900" role="img" aria-labelledby="title desc">
<title id="title">Organized financial information</title><desc id="desc">An editorial financial dashboard with records, cash-flow bars, and a measured upward trend.</desc>
<defs><linearGradient id="bg" x2="1" y2="1"><stop stop-color="#08110f"/><stop offset=".55" stop-color="#123d32"/><stop offset="1" stop-color="#171914"/></linearGradient><linearGradient id="bar" y2="1"><stop stop-color="#f2d98c"/><stop offset="1" stop-color="#9b7327"/></linearGradient><pattern id="dots" width="46" height="46" patternUnits="userSpaceOnUse"><circle cx="2" cy="2" r="2" fill="#f2d98c" opacity=".12"/></pattern><filter id="shadow"><feDropShadow dx="0" dy="18" stdDeviation="18" flood-opacity=".35"/></filter></defs>
<rect width="1600" height="900" fill="url(#bg)"/><rect width="1600" height="900" fill="url(#dots)"/>
<g filter="url(#shadow)"><rect x="145" y="130" width="1310" height="640" rx="42" fill="#0a1713" stroke="#f2d98c" stroke-opacity=".5" stroke-width="3"/><rect x="205" y="205" width="365" height="495" rx="24" fill="#10251e" stroke="#0a8d69" stroke-width="3"/><rect x="625" y="205" width="765" height="495" rx="24" fill="#0d1d18" stroke="#f2d98c" stroke-opacity=".28" stroke-width="3"/></g>
<g fill="none" stroke="#f2d98c" stroke-linecap="round"><path d="M270 290h230" stroke-width="18" opacity=".9"/><path d="M270 350h165M270 400h210M270 450h145M270 500h195" stroke-width="11" opacity=".38"/></g><circle cx="285" cy="610" r="48" fill="#0a8d69"/><path d="M264 610h42m-21-21v42" stroke="#f2d98c" stroke-width="9" stroke-linecap="round"/>
<g fill="url(#bar)"><rect x="700" y="490" width="90" height="140" rx="12"/><rect x="845" y="420" width="90" height="210" rx="12"/><rect x="990" y="350" width="90" height="280" rx="12"/><rect x="1135" y="275" width="90" height="355" rx="12"/></g>
<path d="M690 460l185-105 160 26 220-165" fill="none" stroke="#0a8d69" stroke-width="13" stroke-linecap="round" stroke-linejoin="round"/><path d="M1214 216h41v42" fill="none" stroke="#0a8d69" stroke-width="13" stroke-linecap="round"/><g fill="#f2d98c"><circle cx="690" cy="460" r="13"/><circle cx="875" cy="355" r="13"/><circle cx="1035" cy="381" r="13"/><circle cx="1255" cy="216" r="13"/></g>
</svg>
