<svg xmlns="http://www.w3.org/2000/svg" viewBox="0 0 1600 900" role="img" aria-labelledby="title desc">
<title id="title">Leadership direction before expansion</title><desc id="desc">An editorial illustration of a leadership compass guiding connected teams toward a shared direction.</desc>
<defs><radialGradient id="bg"><stop stop-color="#0c5c47"/><stop offset=".56" stop-color="#10231d"/><stop offset="1" stop-color="#070b09"/></radialGradient><linearGradient id="gold" x2="1" y2="1"><stop stop-color="#fff0b0"/><stop offset="1" stop-color="#b08331"/></linearGradient><filter id="glow"><feGaussianBlur stdDeviation="24"/></filter><pattern id="lines" width="90" height="90" patternUnits="userSpaceOnUse"><path d="M0 90L90 0" stroke="#f2d98c" stroke-opacity=".045"/></pattern></defs>
<rect width="1600" height="900" fill="url(#bg)"/><rect width="1600" height="900" fill="url(#lines)"/><circle cx="800" cy="425" r="285" fill="#d8b45a" opacity=".1" filter="url(#glow)"/>
<g stroke="#f2d98c" stroke-opacity=".34" stroke-width="5"><path d="M800 425L315 650M800 425L465 190M800 425l355-245M800 425l480 230"/></g>
<circle cx="800" cy="425" r="220" fill="#0a1713" stroke="url(#gold)" stroke-width="9"/><circle cx="800" cy="425" r="160" fill="none" stroke="#0a8d69" stroke-width="5" stroke-dasharray="12 18"/><path d="M800 252l58 173-58 173-58-173z" fill="url(#gold)"/><path d="M800 598l-58-173 58 35 58-35z" fill="#0a8d69"/><circle cx="800" cy="425" r="28" fill="#f2d98c"/>
<g><g transform="translate(315 650)"><circle r="78" fill="#10251e" stroke="#f2d98c" stroke-width="5"/><circle cy="-16" r="23" fill="#0a8d69"/><path d="M-38 38c8-43 68-43 76 0" fill="#d8b45a"/></g><g transform="translate(465 190)"><circle r="78" fill="#10251e" stroke="#f2d98c" stroke-width="5"/><circle cy="-16" r="23" fill="#0a8d69"/><path d="M-38 38c8-43 68-43 76 0" fill="#d8b45a"/></g><g transform="translate(1155 180)"><circle r="78" fill="#10251e" stroke="#f2d98c" stroke-width="5"/><circle cy="-16" r="23" fill="#0a8d69"/><path d="M-38 38c8-43 68-43 76 0" fill="#d8b45a"/></g><g transform="translate(1280 655)"><circle r="78" fill="#10251e" stroke="#f2d98c" stroke-width="5"/><circle cy="-16" r="23" fill="#0a8d69"/><path d="M-38 38c8-43 68-43 76 0" fill="#d8b45a"/></g></g>
</svg>
