<svg xmlns="http://www.w3.org/2000/svg" viewBox="0 0 1600 900" role="img" aria-labelledby="title desc">
<title id="title">Market awareness research</title><desc id="desc">An editorial illustration of a global market radar, trend chart, and connected research signals.</desc>
<defs><linearGradient id="bg" x2="1" y2="1"><stop stop-color="#050907"/><stop offset=".5" stop-color="#0a3f32"/><stop offset="1" stop-color="#17170f"/></linearGradient><radialGradient id="globe"><stop stop-color="#0a8d69" stop-opacity=".62"/><stop offset="1" stop-color="#07110e"/></radialGradient><filter id="glow"><feGaussianBlur stdDeviation="14"/></filter><pattern id="grid" width="56" height="56" patternUnits="userSpaceOnUse"><path d="M56 0H0V56" fill="none" stroke="#f2d98c" stroke-opacity=".07"/></pattern></defs>
<rect width="1600" height="900" fill="url(#bg)"/><rect width="1600" height="900" fill="url(#grid)"/>
<circle cx="535" cy="450" r="305" fill="#0a8d69" opacity=".12" filter="url(#glow)"/><circle cx="535" cy="450" r="270" fill="url(#globe)" stroke="#f2d98c" stroke-opacity=".66" stroke-width="5"/>
<g fill="none" stroke="#f2d98c" stroke-opacity=".42" stroke-width="4"><ellipse cx="535" cy="450" rx="115" ry="270"/><ellipse cx="535" cy="450" rx="220" ry="270"/><path d="M265 450h540M303 330h464M303 570h464"/></g>
<g fill="#f2d98c"><circle cx="390" cy="330" r="12"/><circle cx="650" cy="570" r="12"/><circle cx="720" cy="390" r="12"/></g><g stroke="#f2d98c" stroke-opacity=".4" stroke-width="4"><path d="M390 330L1030 200M650 570l500 90M720 390l610 40"/></g>
<g><rect x="945" y="135" width="500" height="590" rx="34" fill="#091511" stroke="#f2d98c" stroke-opacity=".48" stroke-width="4"/><path d="M1015 620h360M1015 520h360M1015 420h360M1015 320h360M1015 220h360" stroke="#f2d98c" stroke-opacity=".14" stroke-width="3"/><path d="M1015 570l84-80 80 25 95-170 101-96" fill="none" stroke="#0a8d69" stroke-width="13" stroke-linecap="round" stroke-linejoin="round"/><path d="M1336 249h39v42" fill="none" stroke="#0a8d69" stroke-width="13" stroke-linecap="round"/><g fill="#f2d98c"><circle cx="1015" cy="570" r="11"/><circle cx="1099" cy="490" r="11"/><circle cx="1179" cy="515" r="11"/><circle cx="1274" cy="345" r="11"/><circle cx="1375" cy="249" r="11"/></g></g>
</svg>
