<svg xmlns="http://www.w3.org/2000/svg" viewBox="0 0 1600 1000" role="img" aria-labelledby="title desc">
  <title id="title">Abstract financial architecture</title>
  <desc id="desc">Layered blue glass structures, ascending lines, and a secure circular vault form.</desc>
  <defs>
    <linearGradient id="bg" x1="0" y1="0" x2="1" y2="1"><stop stop-color="#061a3a"/><stop offset=".55" stop-color="#0b3d78"/><stop offset="1" stop-color="#1674c8"/></linearGradient>
    <linearGradient id="glass" x1="0" y1="0" x2="1" y2="1"><stop stop-color="#dce5ec" stop-opacity=".34"/><stop offset="1" stop-color="#7fa2bd" stop-opacity=".08"/></linearGradient>
    <radialGradient id="glow"><stop stop-color="#b9d0df" stop-opacity=".55"/><stop offset="1" stop-color="#1674c8" stop-opacity="0"/></radialGradient>
    <filter id="shadow"><feDropShadow dx="0" dy="28" stdDeviation="24" flood-color="#061a3a" flood-opacity=".5"/></filter>
    <pattern id="grid" width="64" height="64" patternUnits="userSpaceOnUse"><path d="M64 0H0v64" fill="none" stroke="#b9d0df" stroke-opacity=".09"/></pattern>
  </defs>
  <rect width="1600" height="1000" fill="url(#bg)"/>
  <rect width="1600" height="1000" fill="url(#grid)"/>
  <circle cx="1210" cy="390" r="470" fill="url(#glow)"/>
  <g opacity=".8" filter="url(#shadow)">
    <path d="M790 880V395l235-132v485z" fill="url(#glass)" stroke="#b9d0df" stroke-opacity=".34"/>
    <path d="M1025 748V263l188 102v485z" fill="#0b3d78" fill-opacity=".48" stroke="#b9d0df" stroke-opacity=".25"/>
    <path d="M1085 865V470l184-103v395z" fill="url(#glass)" stroke="#b9d0df" stroke-opacity=".3"/>
    <path d="M1269 762V367l154 84v395z" fill="#061a3a" fill-opacity=".32" stroke="#b9d0df" stroke-opacity=".23"/>
  </g>
  <g fill="none" stroke="#b9d0df" stroke-opacity=".42">
    <path d="M835 490l145-81M835 570l145-81M835 650l145-81M835 730l145-81"/>
    <path d="M1135 555l86-48M1135 625l86-48M1135 695l86-48"/>
  </g>
  <g transform="translate(1130 370)" filter="url(#shadow)">
    <circle r="151" fill="#061a3a" fill-opacity=".84" stroke="#b9d0df" stroke-width="3"/>
    <circle r="111" fill="none" stroke="#1674c8" stroke-width="15"/>
    <circle r="72" fill="#0b3d78" stroke="#b9d0df" stroke-opacity=".7" stroke-width="3"/>
    <path d="M0-70V70M-70 0H70M-50-50l100 100M50-50L-50 50" stroke="#b9d0df" stroke-width="7" stroke-linecap="round"/>
    <circle r="17" fill="#b9d0df"/>
  </g>
  <path d="M680 790c155-88 290-202 400-340 92-116 176-230 350-297" fill="none" stroke="#b9d0df" stroke-width="7" stroke-linecap="round" stroke-dasharray="2 28" opacity=".7"/>
  <path d="m1390 122 44 35-53 19" fill="none" stroke="#b9d0df" stroke-width="7" stroke-linecap="round" stroke-linejoin="round" opacity=".75"/>
  <g fill="#b9d0df" opacity=".58"><circle cx="680" cy="790" r="7"/><circle cx="856" cy="670" r="7"/><circle cx="1000" cy="528" r="7"/><circle cx="1260" cy="275" r="7"/></g>
</svg>
