<svg xmlns="http://www.w3.org/2000/svg" viewBox="0 0 1600 1000" role="img" aria-labelledby="title desc"><title id="title">Business district intelligence</title><desc id="desc">Abstract financial district with TitanCore green and gold market overlays.</desc><defs><linearGradient id="s" x1="0" x2="1" y1="0" y2="1"><stop stop-color="#000"/><stop offset=".6" stop-color="#0b684f"/><stop offset="1" stop-color="#020202"/></linearGradient></defs><rect width="1600" height="1000" fill="url(#s)"/><g fill="#050505" stroke="#d7b35d" stroke-width="4" opacity=".92"><path d="M95 845V355h185v490zM335 845V215h245v630zM650 845V305h195v540zM905 845V155h280v690zM1245 845V390h240v455z"/></g><g stroke="#f0d07a" stroke-width="6" opacity=".55"><path d="M125 430h120M365 285h185M935 225h220M1275 460h175"/><path d="M130 540h120M365 430h185M935 390h220M1275 590h175"/><path d="M130 650h120M365 575h185M935 555h220M1275 720h175"/></g><path d="M90 245c210 75 310 30 455-70s285 80 430 20 295-170 520-60" fill="none" stroke="#f0d07a" stroke-width="16" stroke-linecap="round"/><path d="M95 760c270-180 415-175 610-110s350-30 800-310" fill="none" stroke="#0fb386" stroke-width="14" stroke-linecap="round"/><circle cx="545" cy="175" r="18" fill="#f0d07a"/><circle cx="975" cy="195" r="18" fill="#f0d07a"/><circle cx="1500" cy="135" r="18" fill="#f0d07a"/></svg>
