<svg xmlns="http://www.w3.org/2000/svg" viewBox="0 0 1600 1000" role="img" aria-labelledby="title desc"><title id="title">Capital conditions board</title><desc id="desc">Business intelligence board with market cards, sector grids, and risk indicators.</desc><rect width="1600" height="1000" fill="#020202"/><radialGradient id="r" cx="30%" cy="25%" r="70%"><stop stop-color="#0b684f" stop-opacity=".78"/><stop offset="1" stop-color="#000" stop-opacity="0"/></radialGradient><rect width="1600" height="1000" fill="url(#r)"/><g stroke="#d7b35d" stroke-width="5" fill="rgba(0,0,0,.65)"><rect x="120" y="115" width="630" height="320" rx="14"/><rect x="850" y="115" width="620" height="320" rx="14"/><rect x="120" y="535" width="410" height="300" rx="14"/><rect x="595" y="535" width="410" height="300" rx="14"/><rect x="1060" y="535" width="410" height="300" rx="14"/></g><g fill="none" stroke-linecap="round"><path d="M180 360l95-72 80 32 110-120 95 62 125-105" stroke="#f0d07a" stroke-width="14"/><path d="M910 355c85-110 170-125 245-80s145 30 245-95" stroke="#0fb386" stroke-width="14"/></g><g fill="#f0d07a" font-family="Arial, Helvetica, sans-serif" font-weight="900" letter-spacing="4"><text x="165" y="180" font-size="32">MARKET FOCUS</text><text x="895" y="180" font-size="32">RISK CONDITIONS</text><text x="165" y="610" font-size="28">CREDIT</text><text x="640" y="610" font-size="28">ENERGY</text><text x="1105" y="610" font-size="28">REAL ESTATE</text></g><g fill="#f7f1e6" font-family="Arial, Helvetica, sans-serif" font-weight="800"><text x="165" y="705" font-size="62">CAPITAL</text><text x="640" y="705" font-size="62">COSTS</text><text x="1105" y="705" font-size="62">ASSETS</text></g></svg>
