<svg xmlns="http://www.w3.org/2000/svg" viewBox="0 0 1600 1000" role="img" aria-labelledby="title desc">
<title id="title">Market floor dashboard</title><desc id="desc">Abstract TitanCore market dashboard with green chart lines and gold accents.</desc>
<defs><linearGradient id="bg" x1="0" x2="1" y1="0" y2="1"><stop stop-color="#020202"/><stop offset=".55" stop-color="#062019"/><stop offset="1" stop-color="#000"/></linearGradient><radialGradient id="glow" cx="70%" cy="28%" r="55%"><stop stop-color="#0b684f" stop-opacity=".72"/><stop offset="1" stop-color="#0b684f" stop-opacity="0"/></radialGradient></defs>
<rect width="1600" height="1000" fill="url(#bg)"/><rect width="1600" height="1000" fill="url(#glow)"/><g stroke="#d7b35d" stroke-opacity=".22"><path d="M0 190h1600M0 380h1600M0 570h1600M0 760h1600M260 0v1000M520 0v1000M780 0v1000M1040 0v1000M1300 0v1000"/></g><g fill="none" stroke-linecap="round" stroke-linejoin="round"><path d="M130 690C270 620 310 710 445 560s245-40 360-190 190-75 305-120 230-60 360-150" stroke="#f0d07a" stroke-width="18"/><path d="M130 780c170-30 290-160 430-135s210 110 360 10 210-195 420-170" stroke="#0fb386" stroke-width="14" opacity=".9"/></g><g fill="#050505" stroke="#d7b35d" stroke-width="5"><rect x="112" y="116" width="360" height="170" rx="10"/><rect x="520" y="116" width="360" height="170" rx="10"/><rect x="928" y="116" width="360" height="170" rx="10"/></g><g font-family="Arial, Helvetica, sans-serif" font-weight="800" letter-spacing="5"><text x="152" y="178" fill="#f0d07a" font-size="30">MARKETS</text><text x="560" y="178" fill="#f0d07a" font-size="30">CAPITAL</text><text x="968" y="178" fill="#f0d07a" font-size="30">SECTORS</text><text x="152" y="236" fill="#f7f1e6" font-size="54">WATCH</text><text x="560" y="236" fill="#f7f1e6" font-size="54">FLOW</text><text x="968" y="236" fill="#f7f1e6" font-size="54">SIGNALS</text></g></svg>
